<svg id="Layer_1" data-name="Layer 1" xmlns="http://www.w3.org/2000/svg" viewBox="0 0 40 40"><defs><style>.cls-1{fill:#272525;}</style></defs><title>iconos</title><path class="cls-1" d="M11.85,3.11H7.63a2.06,2.06,0,1,0,0,4.12h4.22a2.06,2.06,0,1,0,0-4.12Zm0,3H7.63a.95.95,0,0,1,0-1.89h4.22a.95.95,0,1,1,0,1.89Z"/><path class="cls-1" d="M13.47,10.15a3,3,0,1,0,3,3A3,3,0,0,0,13.47,10.15Zm0,4.92a1.91,1.91,0,1,1,1.91-1.91A1.9,1.9,0,0,1,13.47,15.07Z"/><path class="cls-1" d="M35.79,7.23a.55.55,0,0,0,.56-.55v-2A3.73,3.73,0,0,0,32.63,1H6.31A2.86,2.86,0,0,0,3.46,3.85V30.26a.56.56,0,0,0,1.12,0V3.85A1.74,1.74,0,0,1,6.31,2.11H20.64a1.74,1.74,0,0,1,1.73,1.74c0,33.82,0,32.31,0,32.48a.69.69,0,0,1,0,.13h0A1.76,1.76,0,0,1,21,37.85a9.65,9.65,0,0,1-1.5,0v-.61A1.45,1.45,0,0,0,18,35.83h-.8a.56.56,0,1,0,0,1.11H18a.33.33,0,0,1,.33.33v.61H8.57v-.61a.34.34,0,0,1,.34-.33h5.73a.56.56,0,0,0,0-1.11H8.91a1.45,1.45,0,0,0-1.45,1.44v.61H6.31a1.73,1.73,0,0,1-1.73-1.73V32.86a.56.56,0,1,0-1.12,0v3.29A2.86,2.86,0,0,0,6.31,39c15.69,0,14.48,0,14.87-.06H32.63a3.73,3.73,0,0,0,3.72-3.72V9.28a.56.56,0,0,0-1.12,0V35.22a2.61,2.61,0,0,1-2.6,2.61h-9.7a2.84,2.84,0,0,0,.44-.89h9.26a1.72,1.72,0,0,0,1.71-1.72V4.72A1.72,1.72,0,0,0,32.63,3H23.36a3,3,0,0,0-.47-.89h9.74a2.61,2.61,0,0,1,2.6,2.61v2A.55.55,0,0,0,35.79,7.23ZM23.48,4.12h9.15a.6.6,0,0,1,.6.6v30.5a.6.6,0,0,1-.6.61H23.48Z"/></svg>