<svg id="Layer_1" data-name="Layer 1" xmlns="http://www.w3.org/2000/svg" viewBox="0 0 40 40"><defs><style>.cls-1{fill:#fff;}</style></defs><title>iconos</title><path class="cls-1" d="M36.94,1H21.8a1.89,1.89,0,0,0-1.89,1.89V4.15h1.26V2.89a.63.63,0,0,1,.63-.63H36.94a.63.63,0,0,1,.63.63v22.7a.63.63,0,0,1-.63.63H23.07v1.26h3.15V30h2.52v7.57h-17v-1.9h2.52V33.15h5.54a2,2,0,0,0,2-2V7.44a2,2,0,0,0-2-2H3a2,2,0,0,0-2,2V31.13a2,2,0,0,0,2,2h4.9v2.52h2.53v3.16H30V30h2.52V27.48h4.42a1.89,1.89,0,0,0,1.89-1.89V2.89A1.89,1.89,0,0,0,36.94,1ZM3,31.89a.76.76,0,0,1-.77-.76V7.44A.77.77,0,0,1,3,6.67H19.78a.77.77,0,0,1,.76.77V31.13a.76.76,0,0,1-.76.76ZM9.2,34.41V33.15H13v1.26Zm22.06-5.67H27.48V27.48h3.78Z"/><path class="cls-1" d="M26.85,25h5a1.9,1.9,0,0,0,0-3.79h-5a1.9,1.9,0,0,0,0,3.79Zm0-2.52h5a.63.63,0,0,1,.63.63.63.63,0,0,1-.63.63h-5a.63.63,0,0,1-.63-.63A.63.63,0,0,1,26.85,22.44Z"/><path class="cls-1" d="M26.85,4.78V6H25V19.91h8.82V6H31.89V4.78ZM32.52,7.3V18.65h-6.3V7.3h1.89V6h2.52V7.3Z"/><rect class="cls-1" x="26.85" y="13.61" width="5.04" height="1.26"/><rect class="cls-1" x="26.85" y="16.13" width="5.04" height="1.26"/><path class="cls-1" d="M14.87,11.09H7.93v6.3H9.2v4.95l7-8.73H13Zm-1.31,3.78-3.1,3.88V16.13H9.2V12.35h3.15l-1.89,2.52Z"/><polygon class="cls-1" points="13.61 23.07 12.35 23.07 12.35 26.22 12.72 26.22 11.09 27.85 9.46 26.22 9.83 26.22 9.83 23.07 8.56 23.07 8.56 24.96 6.41 24.96 11.09 29.63 15.76 24.96 13.61 24.96 13.61 23.07"/></svg>