<svg id="Layer_1" data-name="Layer 1" xmlns="http://www.w3.org/2000/svg" viewBox="0 0 40 40"><defs><style>.cls-1{fill:#fff;}</style></defs><title>iconos</title><path class="cls-1" d="M36.53,27.15V16.32a1.77,1.77,0,0,0-1-1.61A14.29,14.29,0,0,0,21.22,1H18.89A14.3,14.3,0,0,0,4.61,14.7a1.77,1.77,0,0,0-1,1.61V27.15a1.09,1.09,0,0,0-.46.9v1.79a2.07,2.07,0,0,0,2.07,2.07h.44v3a2,2,0,0,0,2,2h.25a2.26,2.26,0,0,0,2.24,2h3a2.25,2.25,0,0,0,2.25-2.25V22.12a2.25,2.25,0,0,0-2.25-2.25h-3a2.26,2.26,0,0,0-2.24,2H7.66A2.1,2.1,0,0,0,7.1,22V16.32a1.76,1.76,0,0,0-1-1.6A12.85,12.85,0,0,1,18.89,2.48h2.33A12.83,12.83,0,0,1,34,14.72a1.75,1.75,0,0,0-1,1.59V22a2,2,0,0,0-.56-.07h-.25a2.26,2.26,0,0,0-2.24-2H27a2.25,2.25,0,0,0-2.25,2.25V36.74A2.25,2.25,0,0,0,27,39h3a2.26,2.26,0,0,0,2.24-2h.25a2,2,0,0,0,2-2v-3h.44A2.07,2.07,0,0,0,37,29.83V28A1.08,1.08,0,0,0,36.53,27.15ZM5.62,16.32V27H5.05V16.32a.29.29,0,0,1,.57,0ZM5.18,30.44a.59.59,0,0,1-.59-.59V28.43h1v2Zm4.21-8.32a.76.76,0,0,1,.76-.77h.75V29.8a.75.75,0,0,0,1.49,0V21.34h.74a.76.76,0,0,1,.76.77V36.74a.76.76,0,0,1-.76.77h-3a.76.76,0,0,1-.76-.77ZM7.66,23.37H7.9V35.49H7.66a.56.56,0,0,1-.56-.56v-11A.57.57,0,0,1,7.66,23.37Zm26.82-7a.28.28,0,0,1,.28-.28.27.27,0,0,1,.28.28V27h-.57V16.32ZM30.72,36.75a.77.77,0,0,1-.77.77H29.2V32.4a.74.74,0,0,0-1.48,0v5.12H27a.77.77,0,0,1-.76-.77V22.12a.76.76,0,0,1,.76-.77h3a.76.76,0,0,1,.76.77V36.75ZM33,34.94a.57.57,0,0,1-.56.56H32.2V23.37h.24a.57.57,0,0,1,.56.56Zm2.51-5.09a.59.59,0,0,1-.59.59h-.44v-2h1v1.42Z"/><path class="cls-1" d="M29.14,28.92l-.06-.13L29,28.68l-.11-.09a.38.38,0,0,0-.13-.06l-.14-.05a.71.71,0,0,0-.29,0l-.14.05-.13.06-.11.09-.09.11a.38.38,0,0,0-.06.13.78.78,0,0,0-.05.14.71.71,0,0,0,0,.14.61.61,0,0,0,0,.14.44.44,0,0,0,.05.15l.06.12a.53.53,0,0,0,.09.11.75.75,0,0,0,.53.22l.15,0a.43.43,0,0,0,.14,0l.12-.07.12-.09.09-.11a.67.67,0,0,0,.06-.12s0-.09.05-.15a.66.66,0,0,0,0-.14s0-.09,0-.14A.53.53,0,0,0,29.14,28.92Z"/></svg>