<svg id="Layer_1" data-name="Layer 1" xmlns="http://www.w3.org/2000/svg" viewBox="0 0 40 40"><defs><style>.cls-1{fill:#272525;}</style></defs><title>iconos</title><path class="cls-1" d="M35.83,4.8h-7V3.53A2.54,2.54,0,0,0,26.33,1H13.67a2.54,2.54,0,0,0-2.54,2.53V4.8h-7A3.17,3.17,0,0,0,1,8V24.43A3.17,3.17,0,0,0,4.17,27.6h7v1.27a2.54,2.54,0,0,0,2.54,2.53h1.26v2.53A1.27,1.27,0,0,0,16.2,35.2h.63v2.53A1.27,1.27,0,0,0,18.1,39h3.8a1.27,1.27,0,0,0,1.27-1.27V35.2h.63a1.27,1.27,0,0,0,1.27-1.27V31.4h1.26a2.54,2.54,0,0,0,2.54-2.53V27.6h7A3.17,3.17,0,0,0,39,24.43V8A3.17,3.17,0,0,0,35.83,4.8ZM12.4,3.53a1.26,1.26,0,0,1,1.27-1.26H26.33A1.26,1.26,0,0,1,27.6,3.53V4.8H12.4ZM2.27,11.65a1.9,1.9,0,0,0,.63.12.63.63,0,0,1,.63.63V20a.63.63,0,0,1-.63.63,1.9,1.9,0,0,0-.63.12Zm0,12.78v-1.9a.63.63,0,0,1,.63-.63A1.9,1.9,0,0,0,4.8,20V12.4a1.9,1.9,0,0,0-1.9-1.9.63.63,0,0,1-.63-.63V8a1.9,1.9,0,0,1,1.9-1.9h28.5V26.33H23.8V26a3.86,3.86,0,0,0-2-3.36l-3.55-2a.44.44,0,0,1-.23-.38v-.92a10.79,10.79,0,0,0,1.71-2.76l.05-.06a1.31,1.31,0,0,0,.4-1V14a1.32,1.32,0,0,0-.36-.92V10.39c-.44-3-4.42-3.06-4.59-3.06s-4.15,0-4.59,3.06v2.69a1.36,1.36,0,0,0-.36.92v1.56a1.31,1.31,0,0,0,.4,1l.06.06a10.48,10.48,0,0,0,1.7,2.76v.91a.45.45,0,0,1-.23.39l-3.55,2A3.86,3.86,0,0,0,6.7,26v.35H4.17A1.9,1.9,0,0,1,2.27,24.43ZM8,26A2.57,2.57,0,0,1,9.3,23.73l3.55-2a1.71,1.71,0,0,0,.88-1.49v-1a1,1,0,0,0-.28-.68A9.74,9.74,0,0,1,11.88,16a.64.64,0,0,0-.14-.22l-.15-.14a.14.14,0,0,1,0-.06V14a.14.14,0,0,1,0-.06l.15-.15a.64.64,0,0,0,.19-.45V10.52c.32-1.89,3.29-1.92,3.32-1.92s3,0,3.33,1.92v2.82a.64.64,0,0,0,.19.45l.15.15a.14.14,0,0,1,0,.06v1.56a.14.14,0,0,1,0,.06l-.15.14a.64.64,0,0,0-.14.22,9.77,9.77,0,0,1-1.58,2.56,1,1,0,0,0-.27.68v1a1.7,1.7,0,0,0,.87,1.49l3.55,2A2.57,2.57,0,0,1,22.53,26v.35H8ZM21.9,37.73H18.1V35.2h3.8Zm1.9-3.8H16.2V31.4h7.6Zm3.8-5.06a1.26,1.26,0,0,1-1.27,1.26H13.67a1.26,1.26,0,0,1-1.27-1.26V27.6H27.6Zm10.13-4.44a1.9,1.9,0,0,1-1.9,1.9h-1.9V6.07h1.9A1.9,1.9,0,0,1,37.73,8Z"/><path class="cls-1" d="M35.83,14.3a.63.63,0,0,0-.63.63v2.54a.63.63,0,0,0,.63.63.64.64,0,0,0,.64-.63V14.93A.64.64,0,0,0,35.83,14.3Z"/><path class="cls-1" d="M27.6,25.07h2.53A1.27,1.27,0,0,0,31.4,23.8V21.27A1.27,1.27,0,0,0,30.13,20H27.6a1.27,1.27,0,0,0-1.27,1.27V23.8A1.27,1.27,0,0,0,27.6,25.07Zm0-3.8h2.53V23.8H27.6Z"/><path class="cls-1" d="M27.6,12.4h2.53a1.27,1.27,0,0,0,1.27-1.27V8.6a1.27,1.27,0,0,0-1.27-1.27H27.6A1.27,1.27,0,0,0,26.33,8.6v2.53A1.27,1.27,0,0,0,27.6,12.4Zm0-3.8h2.53v2.53H27.6Z"/><path class="cls-1" d="M28.87,18.73a2.53,2.53,0,1,0-2.54-2.53A2.53,2.53,0,0,0,28.87,18.73Zm0-3.8A1.27,1.27,0,1,1,27.6,16.2,1.26,1.26,0,0,1,28.87,14.93Z"/></svg>